<svg viewBox="0 0 24 24" fill="none" xmlns="http://www.w3.org/2000/svg" id="Github--Streamline-Unicons"><desc>Github Streamline Icon: https://streamlinehq.com</desc><path d="M11.9999 0.5302c-2.7924 0.0001 -5.4937 0.9939 -7.6204 2.8034C2.2527 5.1431 0.8392 7.6504 0.3919 10.4068c-0.4473 2.7563 0.1008 5.5819 1.5462 7.9712 1.4453 2.3891 3.6937 4.1861 6.3428 5.0693 0.588 0.1029 0.8085 -0.2499 0.8085 -0.5586 0 -0.2793 -0.0147 -1.2054 -0.0147 -2.1903 -2.9547 0.5439 -3.7191 -0.7202 -3.9543 -1.3817 -0.261 -0.6433 -0.6747 -1.2134 -1.2054 -1.6611 -0.4116 -0.2205 -0.9996 -0.7644 -0.0147 -0.7791 0.3761 0.0408 0.7367 0.1717 1.0515 0.3815 0.3147 0.2098 0.5743 0.4925 0.7566 0.8239 0.1608 0.2889 0.3771 0.5433 0.6364 0.7485 0.2593 0.2052 0.5566 0.3573 0.8748 0.4473 0.3182 0.0901 0.651 0.1166 0.9794 0.0779s0.646 -0.1418 0.9344 -0.3035c0.0509 -0.5979 0.3174 -1.1569 0.7498 -1.5729 -2.6166 -0.294 -5.3508 -1.3083 -5.3508 -5.8065 -0.0165 -1.1687 0.4147 -2.2995 1.2054 -3.1604 -0.3595 -1.0158 -0.3175 -2.1306 0.1176 -3.1164 0 0 0.9848 -0.3087 3.234 1.2054 1.9242 -0.5292 3.9556 -0.5292 5.8799 0 2.2491 -1.5288 3.234 -1.2054 3.234 -1.2054 0.4351 0.9858 0.4772 2.1006 0.1176 3.1164 0.7929 0.8594 1.2247 1.9913 1.2054 3.1604 0 4.5129 -2.7489 5.5125 -5.3655 5.8065 0.2806 0.2844 0.4967 0.626 0.6337 1.0013 0.137 0.3755 0.1916 0.776 0.1601 1.1743 0 1.573 -0.0147 2.837 -0.0147 3.2339 0 0.3087 0.2205 0.6762 0.8085 0.5586 2.6444 -0.8903 4.8863 -2.6915 6.3255 -5.0819 1.4393 -2.3905 1.9821 -5.2147 1.5317 -7.9684 -0.4504 -2.7536 -1.8647 -5.2576 -3.9906 -7.0649C17.4892 1.5247 14.7902 0.5317 11.9999 0.5302Z" fill="#000000" stroke-width="1"></path></svg>